<svg id="Layer_1" data-name="Layer 1" xmlns="http://www.w3.org/2000/svg" viewBox="0 0 28.72 17"><defs><style>.cls-1,.cls-2{fill:#4299DC;}.cls-2{font-size:3.26px;font-family:ArialMT, Arial;}.cls-3{letter-spacing:-0.06em;}</style></defs><path class="cls-1" d="M34,28.72a32.17,32.17,0,0,0,12.81.47c7.11-1.16,10.52,3.15,8.75,7.93,0,0-1.59-5.27-6.38-5.13S37.69,32.82,34,28.72Z" transform="translate(-33.96 -28.72)"/><path class="cls-1" d="M39.36,35.45a29.83,29.83,0,0,0,9.11.52c4.9-.52,9,.15,8.39,5.4,0,0-1.36-3.56-4.38-3.67S41.56,38.47,39.36,35.45Z" transform="translate(-33.96 -28.72)"/><path class="cls-1" d="M44.23,40s6.17,1.63,8.43,1.18c0,0,.07,1.16.64,1.37A47.59,47.59,0,0,1,44.23,40Z" transform="translate(-33.96 -28.72)"/></svg>